<svg width="80" height="80" viewBox="0 0 80 80" fill="none" xmlns="http://www.w3.org/2000/svg">
<rect width="80" height="80" fill="#848484"/>
<g clip-path="url(#clip0_1001_46)">
<rect width="1920" height="11189" transform="translate(-609 -2271)" fill="#F6F5FA"/>
<path d="M-24 -3.8147e-06C-24 -13.2548 -13.2548 -24 0 -24H257C270.255 -24 281 -13.2548 281 0V7C281 20.2548 291.745 31 305 31H317C330.255 31 341 41.7452 341 55V429C341 442.255 330.255 453 317 453H60C46.7452 453 36 442.255 36 429V419C36 405.745 25.2548 395 12 395H-1.90735e-06C-13.2548 395 -24 384.255 -24 371V-3.8147e-06Z" fill="#E4FFEA"/>
<path d="M49.625 46C49.625 46.2984 49.5065 46.5845 49.2955 46.7955C49.0845 47.0065 48.7984 47.125 48.5 47.125H39.5C39.2016 47.125 38.9155 47.0065 38.7045 46.7955C38.4935 46.5845 38.375 46.2984 38.375 46C38.375 45.7016 38.4935 45.4155 38.7045 45.2045C38.9155 44.9935 39.2016 44.875 39.5 44.875H48.5C48.7984 44.875 49.0845 44.9935 49.2955 45.2045C49.5065 45.4155 49.625 45.7016 49.625 46ZM48.5 49.375H39.5C39.2016 49.375 38.9155 49.4935 38.7045 49.7045C38.4935 49.9155 38.375 50.2016 38.375 50.5C38.375 50.7984 38.4935 51.0845 38.7045 51.2955C38.9155 51.5065 39.2016 51.625 39.5 51.625H48.5C48.7984 51.625 49.0845 51.5065 49.2955 51.2955C49.5065 51.0845 49.625 50.7984 49.625 50.5C49.625 50.2016 49.5065 49.9155 49.2955 49.7045C49.0845 49.4935 48.7984 49.375 48.5 49.375ZM56.375 33.625V56.125C56.375 57.3185 55.9009 58.4631 55.057 59.307C54.2131 60.1509 53.0685 60.625 51.875 60.625H36.125C34.9315 60.625 33.7869 60.1509 32.943 59.307C32.0991 58.4631 31.625 57.3185 31.625 56.125V33.625C31.625 33.3266 31.7435 33.0405 31.9545 32.8295C32.1655 32.6185 32.4516 32.5 32.75 32.5H36.125V31.375C36.125 31.0766 36.2435 30.7905 36.4545 30.5795C36.6655 30.3685 36.9516 30.25 37.25 30.25C37.5484 30.25 37.8345 30.3685 38.0455 30.5795C38.2565 30.7905 38.375 31.0766 38.375 31.375V32.5H42.875V31.375C42.875 31.0766 42.9935 30.7905 43.2045 30.5795C43.4155 30.3685 43.7016 30.25 44 30.25C44.2984 30.25 44.5845 30.3685 44.7955 30.5795C45.0065 30.7905 45.125 31.0766 45.125 31.375V32.5H49.625V31.375C49.625 31.0766 49.7435 30.7905 49.9545 30.5795C50.1655 30.3685 50.4516 30.25 50.75 30.25C51.0484 30.25 51.3345 30.3685 51.5455 30.5795C51.7565 30.7905 51.875 31.0766 51.875 31.375V32.5H55.25C55.5484 32.5 55.8345 32.6185 56.0455 32.8295C56.2565 33.0405 56.375 33.3266 56.375 33.625ZM54.125 34.75H51.875V35.875C51.875 36.1734 51.7565 36.4595 51.5455 36.6705C51.3345 36.8815 51.0484 37 50.75 37C50.4516 37 50.1655 36.8815 49.9545 36.6705C49.7435 36.4595 49.625 36.1734 49.625 35.875V34.75H45.125V35.875C45.125 36.1734 45.0065 36.4595 44.7955 36.6705C44.5845 36.8815 44.2984 37 44 37C43.7016 37 43.4155 36.8815 43.2045 36.6705C42.9935 36.4595 42.875 36.1734 42.875 35.875V34.75H38.375V35.875C38.375 36.1734 38.2565 36.4595 38.0455 36.6705C37.8345 36.8815 37.5484 37 37.25 37C36.9516 37 36.6655 36.8815 36.4545 36.6705C36.2435 36.4595 36.125 36.1734 36.125 35.875V34.75H33.875V56.125C33.875 56.7217 34.1121 57.294 34.534 57.716C34.956 58.1379 35.5283 58.375 36.125 58.375H51.875C52.4717 58.375 53.044 58.1379 53.466 57.716C53.8879 57.294 54.125 56.7217 54.125 56.125V34.75Z" fill="white"/>
<path d="M-23.5 -3.8147e-06C-23.5 -12.9787 -12.9787 -23.5 0 -23.5H257C269.979 -23.5 280.5 -12.9787 280.5 0V7C280.5 20.531 291.469 31.5 305 31.5H317C329.979 31.5 340.5 42.0213 340.5 55V429C340.5 441.979 329.979 452.5 317 452.5H60C47.0213 452.5 36.5 441.979 36.5 429V419C36.5 405.469 25.531 394.5 12 394.5H-1.90735e-06C-12.9787 394.5 -23.5 383.979 -23.5 371V-3.8147e-06Z" fill="white" stroke="#D1D1D1"/>
<circle cx="40" cy="40" r="40" fill="#9AB8FF"/>
<path d="M45.625 40C45.625 40.2984 45.5065 40.5845 45.2955 40.7955C45.0845 41.0065 44.7984 41.125 44.5 41.125H35.5C35.2016 41.125 34.9155 41.0065 34.7045 40.7955C34.4935 40.5845 34.375 40.2984 34.375 40C34.375 39.7016 34.4935 39.4155 34.7045 39.2045C34.9155 38.9935 35.2016 38.875 35.5 38.875H44.5C44.7984 38.875 45.0845 38.9935 45.2955 39.2045C45.5065 39.4155 45.625 39.7016 45.625 40ZM44.5 43.375H35.5C35.2016 43.375 34.9155 43.4935 34.7045 43.7045C34.4935 43.9155 34.375 44.2016 34.375 44.5C34.375 44.7984 34.4935 45.0845 34.7045 45.2955C34.9155 45.5065 35.2016 45.625 35.5 45.625H44.5C44.7984 45.625 45.0845 45.5065 45.2955 45.2955C45.5065 45.0845 45.625 44.7984 45.625 44.5C45.625 44.2016 45.5065 43.9155 45.2955 43.7045C45.0845 43.4935 44.7984 43.375 44.5 43.375ZM52.375 27.625V50.125C52.375 51.3185 51.9009 52.4631 51.057 53.307C50.2131 54.1509 49.0685 54.625 47.875 54.625H32.125C30.9315 54.625 29.7869 54.1509 28.943 53.307C28.0991 52.4631 27.625 51.3185 27.625 50.125V27.625C27.625 27.3266 27.7435 27.0405 27.9545 26.8295C28.1655 26.6185 28.4516 26.5 28.75 26.5H32.125V25.375C32.125 25.0766 32.2435 24.7905 32.4545 24.5795C32.6655 24.3685 32.9516 24.25 33.25 24.25C33.5484 24.25 33.8345 24.3685 34.0455 24.5795C34.2565 24.7905 34.375 25.0766 34.375 25.375V26.5H38.875V25.375C38.875 25.0766 38.9935 24.7905 39.2045 24.5795C39.4155 24.3685 39.7016 24.25 40 24.25C40.2984 24.25 40.5845 24.3685 40.7955 24.5795C41.0065 24.7905 41.125 25.0766 41.125 25.375V26.5H45.625V25.375C45.625 25.0766 45.7435 24.7905 45.9545 24.5795C46.1655 24.3685 46.4516 24.25 46.75 24.25C47.0484 24.25 47.3345 24.3685 47.5455 24.5795C47.7565 24.7905 47.875 25.0766 47.875 25.375V26.5H51.25C51.5484 26.5 51.8345 26.6185 52.0455 26.8295C52.2565 27.0405 52.375 27.3266 52.375 27.625ZM50.125 28.75H47.875V29.875C47.875 30.1734 47.7565 30.4595 47.5455 30.6705C47.3345 30.8815 47.0484 31 46.75 31C46.4516 31 46.1655 30.8815 45.9545 30.6705C45.7435 30.4595 45.625 30.1734 45.625 29.875V28.75H41.125V29.875C41.125 30.1734 41.0065 30.4595 40.7955 30.6705C40.5845 30.8815 40.2984 31 40 31C39.7016 31 39.4155 30.8815 39.2045 30.6705C38.9935 30.4595 38.875 30.1734 38.875 29.875V28.75H34.375V29.875C34.375 30.1734 34.2565 30.4595 34.0455 30.6705C33.8345 30.8815 33.5484 31 33.25 31C32.9516 31 32.6655 30.8815 32.4545 30.6705C32.2435 30.4595 32.125 30.1734 32.125 29.875V28.75H29.875V50.125C29.875 50.7217 30.1121 51.294 30.534 51.716C30.956 52.1379 31.5283 52.375 32.125 52.375H47.875C48.4717 52.375 49.044 52.1379 49.466 51.716C49.8879 51.294 50.125 50.7217 50.125 50.125V28.75Z" fill="#050505"/>
</g>
<defs>
<clipPath id="clip0_1001_46">
<rect width="1920" height="11189" fill="white" transform="translate(-609 -2271)"/>
</clipPath>
</defs>
</svg>
